<svg
    width="15px"
    height="15px"
    viewBox="0 0 15 15"
    version="1.1"
    xmlns="http://www.w3.org/2000/svg"
  >
    <g
      id="Grid-View"
      stroke="none"
      strokeWidth="1"
      fill="none"
      fillRule="evenodd"
    >
      <g
        id="Home-Screen"
        transform="translate(-330.000000, -100.000000)"
        fill="#000000"
      >
        <g id="Options" transform="translate(15.000000, 85.000000)">
          <g id="grid-version" transform="translate(300.000000, 0.000000)">
            <path
              d="M30,15 L15,15 L15,30 L30,30 L30,15 Z M19.4891566,28.4638554 L16.5361446,28.4638554 L16.5361446,25.5108434 L19.4891566,25.5108434 L19.4891566,28.4638554 Z M19.4891566,23.9746988 L16.5361446,23.9746988 L16.5361446,21.0216867 L19.4891566,21.0216867 L19.4891566,23.9746988 Z M19.4891566,19.4855422 L16.5361446,19.4855422 L16.5361446,16.5361446 L19.4891566,16.5361446 L19.4891566,19.4855422 Z M23.9783133,28.4638554 L21.0218675,28.4638554 L21.0218675,25.5108434 L23.9783133,25.5108434 L23.9783133,28.4638554 Z M23.9783133,23.9746988 L21.0218675,23.9746988 L21.0218675,21.0216867 L23.9783133,21.0216867 L23.9783133,23.9746988 Z M23.9783133,19.4855422 L21.0218675,19.4855422 L21.0218675,16.5361446 L23.9783133,16.5361446 L23.9783133,19.4855422 Z M28.4638554,28.4638554 L25.5108434,28.4638554 L25.5108434,25.5108434 L28.4638554,25.5108434 L28.4638554,28.4638554 Z M28.4638554,23.9746988 L25.5108434,23.9746988 L25.5108434,21.0216867 L28.4638554,21.0216867 L28.4638554,23.9746988 Z M28.4638554,19.4855422 L25.5108434,19.4855422 L25.5108434,16.5361446 L28.4638554,16.5361446 L28.4638554,19.4855422 Z"
              id="grid-option-icon"
            />
          </g>
        </g>
      </g>
    </g>
  </svg>