   <svg
      width="20"
      height="20"
      viewBox="0 0 25 25"
      fill="none"
      xmlns="http://www.w3.org/2000/svg"
    >
      <path
        d="M18.85 10.3967L19.94 9.33674C20.126 9.15099 20.2735 8.93042 20.3741 8.68762C20.4748 8.44483 20.5266 8.18457 20.5266 7.92174C20.5266 7.65891 20.4748 7.39866 20.3741 7.15586C20.2735 6.91306 20.126 6.69249 19.94 6.50674L18.5 5.09674C18.3143 4.91079 18.0937 4.76327 17.8509 4.66262C17.6081 4.56197 17.3478 4.51017 17.085 4.51017C16.8222 4.51017 16.5619 4.56197 16.3191 4.66262C16.0763 4.76327 15.8557 4.91079 15.67 5.09674L14.61 6.15674L18.85 10.3967ZM14.61 11.8167L7.41 19.0067H6V17.5967L13.19 10.4067L14.61 11.8167ZM13.19 7.56674L4 16.7667V21.0067H8.24L17.43 11.8167L13.19 7.56674ZM19 17.5067C19 19.6967 16.46 21.0067 14 21.0067C13.7348 21.0067 13.4804 20.9014 13.2929 20.7138C13.1054 20.5263 13 20.272 13 20.0067C13 19.7415 13.1054 19.4872 13.2929 19.2996C13.4804 19.1121 13.7348 19.0067 14 19.0067C15.54 19.0067 17 18.2767 17 17.5067C17 17.0367 16.52 16.6367 15.77 16.3067L17.25 14.8267C17.7649 15.0627 18.2026 15.4396 18.5123 15.9139C18.822 16.3881 18.9911 16.9404 19 17.5067ZM4.58 13.3567C4.12278 13.1526 3.73218 12.824 3.45279 12.4085C3.17341 11.9929 3.01651 11.5072 3 11.0067C3 9.21674 4.94 8.37674 6.56 7.64674C7.56 7.18674 9 6.56674 9 6.00674C9 5.44674 8.22 5.00674 7 5.00674C6.66738 4.98212 6.33325 5.02623 6.01841 5.13634C5.70358 5.24644 5.41478 5.42018 5.17 5.64674C4.99931 5.84682 4.75667 5.97161 4.49463 5.99407C4.23259 6.01653 3.97225 5.93486 3.77 5.76674C3.57123 5.60087 3.44453 5.36438 3.41655 5.10701C3.38858 4.84963 3.46151 4.59144 3.62 4.38674C4.04547 3.92004 4.56959 3.55403 5.15427 3.31531C5.73895 3.0766 6.36947 2.97119 7 3.00674C9.24 3.00674 11 4.32674 11 6.00674C11 7.87674 9.07 8.72674 7.36 9.47674C6.42 9.88674 5 10.4767 5 11.0067C5 11.3167 5.43 11.6067 6.07 11.8667L4.58 13.3567Z"
        fill="#000000"
      />
</svg>